# xmcd
#
# Track frame offsets: 
#        150
#        13255
#        27725
#        46667
#        61137
#        90665
#        104517
#        116592
#        131237
#        146300
#        159907
#        181587
#        194209
#        207357
#
# Disc length: 2942 seconds
#
# Revision: 4
# Processed by: cddbd v1.5.2PL0 Copyright (c) Steve Scherf et al.
# Submitted via: ExactAudioCopy v0.95b2
#
DISCID=c40b7c0e
DTITLE=Ella Fitzgerald and Louis Armstrong and many others - Vocal Duets
DTITLE=With Ella and Louis [CD 1 of 3)
DYEAR=2000
DGENRE=Jazz
TTITLE0=Ella Fitzgerald and Louis Armstrong - You Won't Be Satisfied (Un
TTITLE0=til You Break My Heart)
TTITLE1=Louis Armstrong and The Mills Brothers - The Song Is Ended
TTITLE2=Louis Armstrong and Jack Teargarden - Basin Street Blues
TTITLE3=Ella Fitzgerald and The Ink Spots - I'm Making Believe
TTITLE4=Louis Armstrong and Billie Holiday - Do You Know What It Means T
TTITLE4=o Miss New Oleans
TTITLE5=Louis Armstrong and The Mills Brothers - Carry Me BackTo Ole Vir
TTITLE5=giny
TTITLE6=Ella Fitzgerald and Louis Jordan - Stone Cold Dead In The Market
TTITLE7=Louis Armstrong and Andy Iona and His Islanders - On A Little Bamb
TTITLE7=oo Bridge
TTITLE8=Louis Armstrong and Jack Teargarden - A Song Was Born
TTITLE9=Ella Fitzgerald and The Four Keys - My Heart And I Decided
TTITLE10=Louis Armstrong and Velma Middleton - That's My Desire
TTITLE11=Louis Armstrong and The Mills Brothers - W.P.A.
TTITLE12=Ella Fitzgerald and The Ink Spots - Cow Cow Boogie
TTITLE13=Louis Armstrong and The Polynesians - To You Sweetheart, Aloha
EXTD=YEAR: 2000
EXTT0=
EXTT1=
EXTT2=
EXTT3=
EXTT4=
EXTT5=
EXTT6=
EXTT7=
EXTT8=
EXTT9=
EXTT10=
EXTT11=
EXTT12=
EXTT13=
PLAYORDER=
